<svg width="629" height="445" viewBox="0 0 629 445" fill="none" xmlns="http://www.w3.org/2000/svg">
<path d="M48.6929 426.388L57.4169 429.001L71.6479 396.593L58.7719 392.737L48.6929 426.388Z" fill="#FFB8B8"/>
<path d="M47.3207 422.873L64.5023 428.019C67.4061 428.89 69.846 430.878 71.2843 433.546C72.7226 436.214 73.042 439.345 72.1723 442.249L72.0657 442.605L43.9346 434.179L47.3207 422.873Z" fill="#2F2E41"/>
<path d="M131.602 433.516L140.153 430.381L132.13 395.908L119.51 400.535L131.602 433.516Z" fill="#FFB8B8"/>
<path d="M128.397 431.524L145.237 425.35C148.083 424.307 151.228 424.437 153.978 425.711C156.728 426.986 158.86 429.301 159.903 432.147L160.031 432.496L132.46 442.605L128.397 431.524Z" fill="#2F2E41"/>
<path d="M63.3209 367.721L48.4639 416.75L66.2919 421.95L83.3779 376.635L63.3209 367.721Z" fill="#2F2E41"/>
<path d="M110.121 378.864L123.493 424.921L142.064 416.007L128.693 372.921L110.121 378.864Z" fill="#2F2E41"/>
<path d="M103.162 387.171C91.2702 387.117 79.4058 386.022 67.7046 383.901L67.4066 383.841V372.511L60.6167 371.756L65.9165 352.828C63.4463 323.668 66.9564 286.739 68.0921 276.11C68.3524 273.617 68.5236 272.218 68.5236 272.218L74.4822 221.569L84.4525 212.366L88.9818 215.313L97.3836 223.715C107.15 247.749 114.899 270.376 114.948 271.83L147.699 376.783L147.478 376.939C136.106 384.967 118.77 387.171 103.162 387.171Z" fill="#3F3D56"/>
<path opacity="0.2" d="M78.708 244.034L76.418 258.328L91.921 264.723L78.708 244.034Z" fill="black"/>
<path d="M109.128 212.291H73.2844C72.5471 212.29 71.8402 211.997 71.3189 211.476C70.7975 210.954 70.5042 210.247 70.5034 209.51V194.06C70.5142 188.576 72.7002 183.321 76.5815 179.447C80.4629 175.573 85.7226 173.398 91.2064 173.398C96.6901 173.398 101.95 175.573 105.831 179.447C109.713 183.321 111.899 188.576 111.909 194.06V209.51C111.909 210.247 111.615 210.954 111.094 211.476C110.573 211.997 109.866 212.29 109.128 212.291Z" fill="#2F2E41"/>
<path d="M95.1635 211.36C103.546 211.36 110.342 204.565 110.342 196.182C110.342 187.799 103.546 181.003 95.1635 181.003C86.7806 181.003 79.9849 187.799 79.9849 196.182C79.9849 204.565 86.7806 211.36 95.1635 211.36Z" fill="#FFB8B8"/>
<path d="M116.807 195.605H94.8891L94.6643 192.458L93.5406 195.605H90.1657L89.7203 189.368L87.4931 195.605H80.9629V195.296C80.9678 190.954 82.6947 186.791 85.7649 183.721C88.8351 180.651 92.9978 178.924 97.3397 178.919H100.43C104.772 178.924 108.934 180.651 112.005 183.721C115.075 186.791 116.802 190.954 116.807 195.296V195.605Z" fill="#2F2E41"/>
<path d="M94.7097 215.175C94.5447 215.175 94.38 215.16 94.2176 215.132L78.1685 212.3V185.775H95.8354L95.3981 186.285C89.3125 193.383 93.8973 204.891 97.1718 211.119C97.4131 211.576 97.5208 212.091 97.4823 212.605C97.4438 213.12 97.2606 213.613 96.9541 214.028C96.6973 214.383 96.36 214.672 95.9699 214.872C95.5797 215.071 95.1478 215.175 94.7097 215.175Z" fill="#2F2E41"/>
<path d="M123.028 279.287H114.231C113.949 279.288 113.677 279.183 113.467 278.993C113.258 278.804 113.128 278.543 113.101 278.262L111.34 260.213H125.919L124.158 278.261C124.132 278.543 124.001 278.804 123.792 278.993C123.583 279.183 123.311 279.288 123.028 279.287Z" fill="#109B81"/>
<path d="M125.896 262.484H111.364C111.063 262.483 110.774 262.363 110.561 262.151C110.349 261.938 110.229 261.649 110.229 261.348V258.623C110.229 258.322 110.349 258.034 110.561 257.821C110.774 257.608 111.063 257.488 111.364 257.488H125.896C126.197 257.488 126.486 257.608 126.699 257.821C126.912 258.034 127.031 258.322 127.032 258.623V261.348C127.031 261.649 126.912 261.938 126.699 262.151C126.486 262.363 126.197 262.483 125.896 262.484Z" fill="#2F2E41"/>
<path opacity="0.2" d="M68.8926 271.521C72.9323 276.198 78.4118 279.401 84.4699 280.625C90.528 281.85 96.8213 281.027 102.361 278.285L105.664 276.65L68.8926 271.521Z" fill="black"/>
<path d="M121.711 268.026C121.034 267.266 120.198 266.663 119.263 266.26C118.327 265.857 117.315 265.664 116.297 265.695C115.279 265.726 114.281 265.979 113.371 266.438C112.462 266.896 111.664 267.549 111.034 268.349L95.7088 264.046L90.8228 272.722L112.551 278.494C113.965 279.463 115.686 279.88 117.387 279.665C119.088 279.45 120.651 278.619 121.78 277.329C122.909 276.039 123.526 274.379 123.513 272.664C123.5 270.95 122.859 269.3 121.711 268.026Z" fill="#FFB8B8"/>
<path d="M85.1388 277.654C77.8523 277.655 67.9934 273.383 56.2899 265.108C55.6376 264.656 55.0863 264.074 54.6709 263.398C54.2555 262.722 53.985 261.967 53.8765 261.181C53.0132 255.712 58.348 248.318 58.8711 247.609L64.4792 232.208C64.5437 231.958 66.351 225.295 70.8882 222.924C71.8435 222.434 72.8935 222.157 73.9661 222.111C75.0387 222.065 76.1085 222.252 77.102 222.659C85.7443 225.806 78.996 250.107 78.0696 253.294L89.5198 258.684L96.7909 263.319L106.749 264.36L104.045 276.872L88.9224 277.212C87.6842 277.515 86.4134 277.664 85.1388 277.654Z" fill="#3F3D56"/>
<path d="M628.675 163.513C628.667 148.891 625.407 134.455 619.13 121.249C612.854 108.043 603.719 96.399 592.386 87.1599C581.054 77.9209 567.808 71.3184 553.609 67.8309C539.409 64.3434 524.612 64.0581 510.289 66.9958C495.965 69.9335 482.475 76.0206 470.795 84.8161C459.115 93.6115 449.538 104.895 442.757 117.849C435.976 130.803 432.162 145.103 431.591 159.713C431.02 174.324 433.705 188.878 439.454 202.322C439.358 202.215 439.258 202.11 439.162 202.003C443.541 212.208 449.611 221.601 457.116 229.786C457.139 229.81 457.162 229.834 457.184 229.859C457.79 230.519 458.399 231.176 459.022 231.819C468.03 241.215 478.816 248.728 490.752 253.921C502.687 259.115 515.536 261.885 528.551 262.073L525.22 443.002H535.512L533.429 323.586L548.316 315.749L546.045 311.435L533.334 318.127L532.356 262.063C558.102 261.473 582.595 250.831 600.595 232.414C618.596 213.996 628.674 189.266 628.675 163.513Z" fill="#109B81"/>
<path d="M336.087 115.465C336.078 98.3302 332.257 81.4118 324.902 65.9358C317.547 50.4598 306.841 36.8138 293.56 25.9864C280.28 15.1591 264.757 7.42153 248.116 3.33445C231.476 -0.752637 214.135 -1.0869 197.349 2.35584C180.564 5.79858 164.754 12.9321 151.066 23.2396C137.378 33.5471 126.154 46.7704 118.208 61.9514C110.262 77.1325 105.792 93.891 105.122 111.013C104.453 128.135 107.601 145.191 114.337 160.946C114.224 160.821 114.108 160.699 113.995 160.572C119.127 172.532 126.24 183.54 135.036 193.131C135.062 193.16 135.089 193.188 135.116 193.217C135.825 193.991 136.539 194.76 137.269 195.514C147.826 206.525 160.466 215.33 174.454 221.416C188.441 227.502 203.499 230.75 218.752 230.969L214.848 443.002H226.908L224.467 303.057L241.913 293.872L239.252 288.817L224.356 296.66L223.21 230.958C253.382 230.266 282.086 217.795 303.181 196.211C324.276 174.627 336.087 145.645 336.087 115.465Z" fill="#109B81"/>
<path d="M250.115 438.432C250.115 438.432 250.737 425.405 263.482 426.919Z" fill="#3F3D56"/>
<path d="M246.514 426.035C250.037 426.035 252.893 423.18 252.893 419.657C252.893 416.134 250.037 413.278 246.514 413.278C242.991 413.278 240.135 416.134 240.135 419.657C240.135 423.18 242.991 426.035 246.514 426.035Z" fill="#109B81"/>
<path d="M247.277 430.398H245.476V443.002H247.277V430.398Z" fill="#3F3D56"/>
<path d="M424.655 443.16C424.655 443.16 425.277 430.133 438.022 431.648Z" fill="#3F3D56"/>
<path d="M304.919 443.16C304.919 443.16 305.541 430.133 318.286 431.648Z" fill="#3F3D56"/>
<path d="M478.671 443.16C478.671 443.16 479.293 430.133 492.038 431.648Z" fill="#3F3D56"/>
<path d="M453.464 443.16C453.464 443.16 454.086 430.133 466.83 431.648Z" fill="#3F3D56"/>
<path d="M401.465 443.16C401.465 443.16 400.843 430.133 388.099 431.648Z" fill="#3F3D56"/>
<path d="M194.403 443.16C194.403 443.16 193.781 430.133 181.037 431.648Z" fill="#3F3D56"/>
<path d="M22.4514 443.16C22.4514 443.16 21.8297 430.133 9.08496 431.648Z" fill="#3F3D56"/>
<path d="M532.904 443.16C532.904 443.16 532.283 430.133 519.538 431.648Z" fill="#3F3D56"/>
<path d="M455.481 444.061C455.481 444.061 454.859 431.034 442.115 432.548Z" fill="#3F3D56"/>
<path d="M629 441.854H0V443.854H629V441.854Z" fill="#3F3D56"/>
</svg>
